<svg xmlns="http://www.w3.org/2000/svg" xmlns:xlink="http://www.w3.org/1999/xlink"><symbol id="close-icon" viewBox="0 0 512 512"><g><g data-name="02 User"><path d="M25 512a25 25 0 0 1-17.68-42.68l462-462a25 25 0 0 1 35.36 35.36l-462 462A24.93 24.93 0 0 1 25 512z" fill="#fff" opacity="1" data-original="#000000" class=""/><path d="M487 512a24.93 24.93 0 0 1-17.68-7.32l-462-462A25 25 0 0 1 42.68 7.32l462 462A25 25 0 0 1 487 512z" fill="#fff" opacity="1" data-original="#000000" class=""/></g></g></symbol><symbol id="discord" viewBox="0 0 512 512"><g><path d="M133.408 346.261c95.35 37.211 176.493 44.459 268.445-13.461-.674 1.011-18.863 27.958-66.695 41.768 10.105 13.811 23.916 29.642 23.916 29.642 30.653 0 60.632-8.758 86.568-25.6 20.211-13.474 31.663-36.716 29.305-60.968-4.042-41.432-13.811-81.853-28.968-120.589-19.2-50.526-65.347-85.558-118.905-90.611-4.716-.337-8.084-.337-10.105-.337l-5.389 5.389c61.642 17.516 92.295 44.8 92.968 45.811-94.653-47.832-206.484-48.505-301.811-2.021 0 0 30.316-29.979 97.347-45.811l-4.042-4.042c-7.074 0-13.811.674-20.884 1.684-49.516 8.421-90.947 42.442-108.8 89.263-15.495 40.421-25.6 82.863-29.305 125.979-2.021 22.905 8.758 45.474 27.621 58.611 24.926 16.505 54.568 25.263 84.547 25.263 0 0 12.126-15.832 24.253-29.979-45.474-13.474-64-40.421-64.337-41.432l8.558 4.37a172.042 172.042 0 0 0 15.713 7.071zm52.866-29.293c-21.895-.674-39.074-19.2-38.4-41.432.674-20.884 17.516-37.726 38.4-38.4 21.895.674 39.074 19.2 38.4 41.432-1.011 20.885-17.516 37.727-38.4 38.4zm137.431 0c-21.895-.674-39.074-19.2-38.4-41.432.674-20.884 17.516-37.726 38.4-38.4 21.895.674 39.074 19.2 38.4 41.432-.673 20.885-17.516 37.727-38.4 38.4z" fill="#2d2d2d" opacity="1" data-original="#000000" class=""/></g></symbol><symbol id="menuIcon" viewBox="0 0 32 32"><g><path d="M29 17H3a1 1 0 0 1 0-2h26a1 1 0 0 1 0 2zm1 6a1 1 0 0 0-1-1H3a1 1 0 0 0 0 2h26a1 1 0 0 0 1-1zm0-14a1 1 0 0 0-1-1H3a1 1 0 0 0 0 2h26a1 1 0 0 0 1-1z" data-name="Layer 6" fill="#fff" opacity="1" data-original="#000000"/></g></symbol><symbol id="rf-flag" viewBox="0 0 512.001 512.001"><g><path d="M512 200.093H0V97.104a8.829 8.829 0 0 1 8.828-8.828h494.345a8.829 8.829 0 0 1 8.828 8.828L512 200.093z" style="" fill="#f5f5f5" data-original="#f5f5f5" class=""/><path d="M503.172 423.725H8.828A8.829 8.829 0 0 1 0 414.897V311.909h512v102.988a8.828 8.828 0 0 1-8.828 8.828z" style="" fill="#ff4b55" data-original="#ff4b55"/><path d="M0 200.091h512v111.81H0z" style="" fill="#41479b" data-original="#41479b"/></g></symbol><symbol id="round" viewBox="0 0 512 512"><g><path d="M453.6 138.7c-26.4-38.7-63.1-68.6-106.3-86.5-4.4-1.8-9.4.3-11.2 4.6-1.8 4.4.3 9.4 4.6 11.2 83.2 34.4 137 114.9 137 205 0 122.3-99.5 221.8-221.8 221.8S34.2 395.4 34.2 273.1 133.7 51.3 256 51.3h3.9l-22.7 19.2c-3.6 3.1-4.1 8.5-1 12.1s8.5 4.1 12.1 1l40-33.8c4.1-3.5 4.1-10.5 0-14L248.2 2c-3.6-3.1-9-2.6-12.1 1s-2.6 9 1 12.1l22.6 19.1c-3 .6-95.8-6.9-172.7 70-93.4 93.4-93.4 244.5 0 337.9s244.5 93.4 337.9 0c83.3-83.3 91.6-211 28.7-303.4z" fill="#6a7184" opacity="1" data-original="#000000"/></g></symbol><symbol id="tg" viewBox="0 0 32 32"><g><path d="m2.617 15.832 6.44 2.187 15.291-9.348c.222-.135.449.166.258.342L13.03 19.668l-.43 5.965a.494.494 0 0 0 .838.388l3.564-3.505 6.516 4.932c.702.532 1.719.157 1.908-.703l4.537-20.6c.259-1.175-.893-2.167-2.016-1.737L2.585 14.12c-.796.305-.774 1.438.032 1.712z" fill="#2d2d2d" opacity="1" data-original="#000000"/></g></symbol><symbol id="uk-flag" viewBox="0 0 512 512"><g><path d="M0 85.333h512V426.67H0z" style="" fill="#f0f0f0" data-original="#f0f0f0"/><path d="M288 85.33h-64v138.666H0v64h224v138.666h64V287.996h224v-64H288z" style="" fill="#d80027" data-original="#d80027"/><path d="M393.785 315.358 512 381.034v-65.676zM311.652 315.358 512 426.662v-31.474l-143.693-79.83zM458.634 426.662l-146.982-81.664v81.664z" style="" fill="#0052b4" data-original="#0052b4"/><path d="M311.652 315.358 512 426.662v-31.474l-143.693-79.83z" style="" fill="#f0f0f0" data-original="#f0f0f0"/><path d="M311.652 315.358 512 426.662v-31.474l-143.693-79.83z" style="" fill="#d80027" data-original="#d80027"/><path d="M90.341 315.356 0 365.546v-50.19zM200.348 329.51v97.151H25.491z" style="" fill="#0052b4" data-original="#0052b4"/><path d="M143.693 315.358 0 395.188v31.474l200.348-111.304z" style="" fill="#d80027" data-original="#d80027"/><path d="M118.215 196.634 0 130.958v65.676zM200.348 196.634 0 85.33v31.474l143.693 79.83zM53.366 85.33l146.982 81.664V85.33z" style="" fill="#0052b4" data-original="#0052b4"/><path d="M200.348 196.634 0 85.33v31.474l143.693 79.83z" style="" fill="#f0f0f0" data-original="#f0f0f0"/><path d="M200.348 196.634 0 85.33v31.474l143.693 79.83z" style="" fill="#d80027" data-original="#d80027"/><path d="M421.659 196.636 512 146.446v50.19zM311.652 182.482V85.331h174.857z" style="" fill="#0052b4" data-original="#0052b4"/><path d="M368.307 196.634 512 116.804V85.33L311.652 196.634z" style="" fill="#d80027" data-original="#d80027"/></g></symbol><symbol id="unsimple-logo" viewBox="0 0 27 29">
<path d="M0.917208 19.9468C0.855347 19.7788 1.0702 19.6478 1.19126 19.7808C2.67658 21.417 7.39663 25.9158 13.6419 24.9273C16.5015 24.4751 19.1628 23.0788 20.7898 20.645C21.6665 19.334 22.3057 17.8469 22.1441 16.249C22.0443 15.264 21.747 14.2977 21.2701 13.4282C20.404 11.8478 18.8282 10.4252 17.1168 9.80569C17.1168 9.80569 14.9776 9.0316 14.2552 10.5247C13.5328 12.0178 14.8665 12.9847 15.394 13.1507C15.8363 13.2898 16.8653 13.1762 17.4148 12.3699C17.5172 12.22 17.7533 12.2812 17.7666 12.4619C17.8398 13.4242 17.7008 15.2667 15.8656 16.5232C13.2821 18.2925 10.9766 17.0487 10.3373 16.6616C8.16823 15.348 7.43321 12.1871 9.08151 10.1961C9.14071 10.1242 9.06621 10.0207 8.97907 10.0536C8.27066 10.3211 6.57847 11.1328 5.44768 13.0922C5.35722 13.2488 5.11842 13.197 5.09847 13.017C4.97341 11.8753 5.09115 9.14651 8.39172 6.70933C12.6927 3.53368 18.5183 5.79212 18.5316 5.79682C18.5442 5.80085 23.2297 7.24085 25.5325 12.2933C27.838 17.3524 24.0598 22.5217 22.3656 24.1526C20.6708 25.7834 17.1154 28.8246 11.3092 27.9948C5.96718 27.2328 2.01141 22.933 0.917208 19.9468Z" fill=""/>
<path d="M20.9141 15.4763C20.9999 15.3426 21.2054 15.3883 21.2254 15.5455C21.4043 16.9512 21.4362 21.2208 15.7277 23.2138C10.6179 24.9979 3.64626 22.7045 1.24966 17.6716C0.572514 16.2497 0.249242 14.6726 0.225961 13.1036C0.190707 10.6839 0.844568 8.59953 2.27535 6.66296C3.76799 4.64374 5.79011 3.05592 8.06033 1.98281C12.2602 -0.00213796 17.9048 0.861321 21.4602 3.78364C22.9774 5.03079 24.2858 6.71873 25.0641 8.51553C25.1386 8.68755 24.9224 8.83673 24.7887 8.70502C23.3386 7.27645 19.3077 3.80716 14.3661 3.80716C8.14348 3.80716 5.28192 8.39593 5.28192 8.39593C5.28192 8.39593 1.89288 13.3717 6.55971 17.4908C11.0822 21.4815 18.3671 19.4529 20.9141 15.4763Z" fill=""/>
</symbol><symbol id="user-icon" viewBox="0 0 512 512"><g><path d="M256 0c-74.439 0-135 60.561-135 135s60.561 135 135 135 135-60.561 135-135S330.439 0 256 0zM423.966 358.195C387.006 320.667 338.009 300 286 300h-60c-52.008 0-101.006 20.667-137.966 58.195C51.255 395.539 31 444.833 31 497c0 8.284 6.716 15 15 15h420c8.284 0 15-6.716 15-15 0-52.167-20.255-101.461-57.034-138.805z" fill="#fff" opacity="1" data-original="#000000"/></g></symbol><symbol id="vk" viewBox="0 0 548.358 548.358"><g><path d="M545.451 400.298c-.664-1.431-1.283-2.618-1.858-3.569-9.514-17.135-27.695-38.167-54.532-63.102l-.567-.571-.284-.28-.287-.287h-.288c-12.18-11.611-19.893-19.418-23.123-23.415-5.91-7.614-7.234-15.321-4.004-23.13 2.282-5.9 10.854-18.36 25.696-37.397 7.807-10.089 13.99-18.175 18.556-24.267 32.931-43.78 47.208-71.756 42.828-83.939l-1.701-2.847c-1.143-1.714-4.093-3.282-8.846-4.712-4.764-1.427-10.853-1.663-18.278-.712l-82.224.568c-1.332-.472-3.234-.428-5.712.144l-3.713.859-1.431.715-1.136.859c-.952.568-1.999 1.567-3.142 2.995-1.137 1.423-2.088 3.093-2.848 4.996-8.952 23.031-19.13 44.444-30.553 64.238-7.043 11.803-13.511 22.032-19.418 30.693-5.899 8.658-10.848 15.037-14.842 19.126-4 4.093-7.61 7.372-10.852 9.849-3.237 2.478-5.708 3.525-7.419 3.142-1.715-.383-3.33-.763-4.859-1.143-2.663-1.714-4.805-4.045-6.42-6.995-1.622-2.95-2.714-6.663-3.285-11.136-.568-4.476-.904-8.326-1-11.563-.089-3.233-.048-7.806.145-13.706.198-5.903.287-9.897.287-11.991 0-7.234.141-15.085.424-23.555.288-8.47.521-15.181.716-20.125.194-4.949.284-10.185.284-15.705s-.336-9.849-1-12.991a44.442 44.442 0 0 0-2.99-9.137c-1.335-2.95-3.289-5.232-5.853-6.852-2.569-1.618-5.763-2.902-9.564-3.856-10.089-2.283-22.936-3.518-38.547-3.71-35.401-.38-58.148 1.906-68.236 6.855-3.997 2.091-7.614 4.948-10.848 8.562-3.427 4.189-3.905 6.475-1.431 6.851 11.422 1.711 19.508 5.804 24.267 12.275l1.715 3.429c1.334 2.474 2.666 6.854 3.999 13.134 1.331 6.28 2.19 13.227 2.568 20.837.95 13.897.95 25.793 0 35.689-.953 9.9-1.853 17.607-2.712 23.127-.859 5.52-2.143 9.993-3.855 13.418-1.715 3.426-2.856 5.52-3.428 6.28-.571.76-1.047 1.239-1.425 1.427a21.387 21.387 0 0 1-7.71 1.431c-2.667 0-5.901-1.334-9.707-4-3.805-2.666-7.754-6.328-11.847-10.992-4.093-4.665-8.709-11.184-13.85-19.558-5.137-8.374-10.467-18.271-15.987-29.691l-4.567-8.282c-2.855-5.328-6.755-13.086-11.704-23.267-4.952-10.185-9.329-20.037-13.134-29.554-1.521-3.997-3.806-7.04-6.851-9.134l-1.429-.859c-.95-.76-2.475-1.567-4.567-2.427a30.301 30.301 0 0 0-6.567-1.854l-78.229.568c-7.994 0-13.418 1.811-16.274 5.428l-1.143 1.711c-.571.953-.859 2.475-.859 4.57 0 2.094.571 4.664 1.714 7.707 11.42 26.84 23.839 52.725 37.257 77.659 13.418 24.934 25.078 45.019 34.973 60.237 9.897 15.229 19.985 29.602 30.264 43.112 10.279 13.515 17.083 22.176 20.412 25.981 3.333 3.812 5.951 6.662 7.854 8.565l7.139 6.851c4.568 4.569 11.276 10.041 20.127 16.416 8.853 6.379 18.654 12.659 29.408 18.85 10.756 6.181 23.269 11.225 37.546 15.126 14.275 3.905 28.169 5.472 41.684 4.716h32.834c6.659-.575 11.704-2.669 15.133-6.283l1.136-1.431c.764-1.136 1.479-2.901 2.139-5.276.668-2.379 1-5 1-7.851-.195-8.183.428-15.558 1.852-22.124 1.423-6.564 3.045-11.513 4.859-14.846 1.813-3.33 3.859-6.14 6.136-8.418 2.282-2.283 3.908-3.666 4.862-4.142.948-.479 1.705-.804 2.276-.999 4.568-1.522 9.944-.048 16.136 4.429 6.187 4.473 11.99 9.996 17.418 16.56 5.425 6.57 11.943 13.941 19.555 22.124 7.617 8.186 14.277 14.271 19.985 18.274l5.708 3.426c3.812 2.286 8.761 4.38 14.853 6.283 6.081 1.902 11.409 2.378 15.984 1.427l73.087-1.14c7.229 0 12.854-1.197 16.844-3.572 3.998-2.379 6.373-5 7.139-7.851.764-2.854.805-6.092.145-9.712-.677-3.611-1.344-6.136-2.008-7.563z" fill="#2d2d2d" opacity="1" data-original="#000000" class=""/></g></symbol></svg>